<svg width="300" height="122" viewBox="0 0 300 122" fill="none" xmlns="http://www.w3.org/2000/svg">
<mask id="mask0_8_143" style="mask-type:alpha" maskUnits="userSpaceOnUse" x="34" y="0" width="233" height="117">
<path d="M267 116.5H34C34 52.1588 86.1588 0 150.5 0C214.841 0 267 52.1588 267 116.5Z" fill="#A32A2A"/>
</mask>
<g mask="url(#mask0_8_143)">
<rect x="34" width="151" height="115" fill="url(#paint0_linear_8_143)"/>
</g>
<path fill-rule="evenodd" clip-rule="evenodd" d="M150 3.5C149.668 3.5 149.336 3.50143 149.004 3.50427C148.176 3.51139 147.499 2.84561 147.492 2.01721C147.484 1.18882 148.15 0.511501 148.979 0.504385C149.319 0.501464 149.659 0.5 150 0.5C150.341 0.5 150.681 0.501464 151.021 0.504385C151.85 0.5115 152.516 1.18882 152.508 2.01721C152.501 2.84561 151.824 3.51139 150.996 3.50427C150.664 3.50143 150.332 3.5 150 3.5ZM159.534 2.37982C159.613 1.55512 160.345 0.950169 161.17 1.02863C161.846 1.09297 162.521 1.1631 163.194 1.23896C164.017 1.33177 164.609 2.07434 164.516 2.89756C164.423 3.72077 163.681 4.31288 162.857 4.22008C162.202 4.14617 161.544 4.07784 160.885 4.01514C160.061 3.93668 159.456 3.20453 159.534 2.37982ZM140.466 2.37982C140.544 3.20453 139.939 3.93669 139.115 4.01515C138.456 4.07784 137.798 4.14617 137.143 4.22008C136.319 4.31288 135.577 3.72077 135.484 2.89756C135.391 2.07435 135.983 1.33177 136.806 1.23896C137.479 1.1631 138.154 1.09298 138.83 1.02863C139.655 0.950171 140.387 1.55512 140.466 2.37982ZM171.464 3.98953C171.628 3.17757 172.42 2.65255 173.232 2.81687C173.898 2.95174 174.562 3.0923 175.225 3.23849C176.034 3.41706 176.545 4.21761 176.366 5.02657C176.188 5.83552 175.387 6.34654 174.578 6.16796C173.933 6.02555 173.286 5.88864 172.637 5.75726C171.825 5.59294 171.3 4.8015 171.464 3.98953ZM128.536 3.98953C128.7 4.8015 128.175 5.59294 127.363 5.75726C126.714 5.88864 126.067 6.02556 125.422 6.16796C124.613 6.34654 123.812 5.83552 123.634 5.02657C123.455 4.21762 123.966 3.41707 124.775 3.23849C125.438 3.0923 126.102 2.95174 126.768 2.81687C127.58 2.65255 128.372 3.17757 128.536 3.98953ZM183.161 6.84289C183.41 6.05274 184.252 5.61397 185.042 5.86287C185.69 6.06703 186.336 6.27669 186.979 6.49181C187.765 6.7546 188.189 7.60452 187.926 8.39016C187.663 9.1758 186.813 9.59966 186.028 9.33688C185.401 9.12734 184.772 8.92312 184.141 8.72426C183.351 8.47536 182.912 7.63304 183.161 6.84289ZM116.839 6.84289C117.088 7.63304 116.649 8.47536 115.859 8.72427C115.228 8.92312 114.599 9.12734 113.972 9.33688C113.187 9.59967 112.337 9.17581 112.074 8.39016C111.811 7.60452 112.235 6.7546 113.021 6.49181C113.664 6.27669 114.31 6.06703 114.958 5.86288C115.748 5.61397 116.59 6.05274 116.839 6.84289ZM105.507 10.9127C105.838 11.6723 105.49 12.5561 104.731 12.8869C104.124 13.1508 103.521 13.4198 102.921 13.694C102.167 14.038 101.277 13.7059 100.933 12.9523C100.589 12.1987 100.921 11.3088 101.675 10.9648C102.291 10.6834 102.911 10.4072 103.533 10.1363C104.292 9.80556 105.176 10.1532 105.507 10.9127ZM194.493 10.9127C194.824 10.1532 195.708 9.80556 196.467 10.1363C197.089 10.4072 197.709 10.6834 198.325 10.9648C199.079 11.3089 199.411 12.1987 199.067 12.9523C198.723 13.7059 197.833 14.038 197.079 13.694C196.479 13.4198 195.876 13.1508 195.269 12.8869C194.51 12.5561 194.162 11.6723 194.493 10.9127ZM94.6667 16.1515C95.0753 16.8722 94.8223 17.7876 94.1017 18.1962C93.527 18.522 92.9555 18.8527 92.3871 19.1882C91.6737 19.6094 90.754 19.3724 90.3329 18.659C89.9118 17.9456 90.1487 17.0259 90.8621 16.6048C91.4455 16.2604 92.0321 15.921 92.622 15.5865C93.3427 15.1779 94.2581 15.4309 94.6667 16.1515ZM205.333 16.1515C205.742 15.4309 206.657 15.1779 207.378 15.5865C207.968 15.921 208.555 16.2604 209.138 16.6048C209.851 17.0259 210.088 17.9456 209.667 18.659C209.246 19.3724 208.326 19.6094 207.613 19.1882C207.045 18.8527 206.473 18.522 205.898 18.1962C205.178 17.7876 204.925 16.8722 205.333 16.1515ZM84.4352 22.4968C84.9169 23.1708 84.7609 24.1076 84.0869 24.5893C83.5496 24.9732 83.0157 25.3617 82.4855 25.7547C81.8199 26.248 80.8805 26.1084 80.3872 25.4428C79.8939 24.7772 80.0336 23.8378 80.6991 23.3445C81.2434 22.9412 81.7912 22.5424 82.3427 22.1484C83.0167 21.6668 83.9536 21.8227 84.4352 22.4968ZM215.565 22.4968C216.046 21.8227 216.983 21.6668 217.657 22.1484C218.209 22.5424 218.757 22.9412 219.301 23.3445C219.966 23.8378 220.106 24.7772 219.613 25.4428C219.119 26.1084 218.18 26.248 217.515 25.7547C216.984 25.3617 216.45 24.9732 215.913 24.5893C215.239 24.1076 215.083 23.1708 215.565 22.4968ZM74.9213 29.8744C75.4705 30.4946 75.4129 31.4426 74.7926 31.9918C74.2981 32.4296 73.8075 32.8716 73.3208 33.3178C72.7102 33.8777 71.7613 33.8365 71.2015 33.2259C70.6416 32.6152 70.6828 31.6664 71.2934 31.1065C71.7929 30.6486 72.2965 30.1949 72.8039 29.7456C73.4242 29.1965 74.3722 29.2541 74.9213 29.8744ZM225.079 29.8744C225.628 29.2541 226.576 29.1965 227.196 29.7456C227.704 30.1949 228.207 30.6486 228.707 31.1065C229.317 31.6664 229.358 32.6152 228.799 33.2259C228.239 33.8365 227.29 33.8777 226.679 33.3178C226.192 32.8716 225.702 32.4296 225.207 31.9918C224.587 31.4426 224.53 30.4946 225.079 29.8744ZM66.2259 38.2015C66.8365 38.7613 66.8777 39.7102 66.3178 40.3208C65.8716 40.8075 65.4296 41.2981 64.9918 41.7926C64.4426 42.4129 63.4946 42.4705 62.8744 41.9213C62.2541 41.3722 62.1965 40.4242 62.7456 39.8039C63.1949 39.2965 63.6486 38.7929 64.1065 38.2934C64.6664 37.6828 65.6152 37.6416 66.2259 38.2015ZM233.774 38.2015C234.385 37.6416 235.334 37.6828 235.893 38.2934C236.351 38.7929 236.805 39.2965 237.254 39.8039C237.804 40.4242 237.746 41.3722 237.126 41.9213C236.505 42.4705 235.557 42.4129 235.008 41.7926C234.57 41.2981 234.128 40.8075 233.682 40.3208C233.122 39.7102 233.163 38.7613 233.774 38.2015ZM58.4428 47.3872C59.1084 47.8805 59.248 48.8199 58.7547 49.4855C58.3617 50.0157 57.9732 50.5496 57.5893 51.0869C57.1076 51.7609 56.1708 51.9169 55.4968 51.4352C54.8227 50.9536 54.6668 50.0167 55.1484 49.3427C55.5424 48.7912 55.9412 48.2434 56.3445 47.6991C56.8378 47.0336 57.7772 46.8939 58.4428 47.3872ZM241.557 47.3872C242.223 46.8939 243.162 47.0336 243.655 47.6991C244.059 48.2434 244.458 48.7912 244.852 49.3427C245.333 50.0167 245.177 50.9536 244.503 51.4352C243.829 51.9169 242.892 51.7609 242.411 51.0869C242.027 50.5496 241.638 50.0157 241.245 49.4855C240.752 48.8199 240.892 47.8805 241.557 47.3872ZM51.659 57.3329C52.3724 57.754 52.6094 58.6737 52.1882 59.3871C51.8527 59.9555 51.522 60.527 51.1962 61.1017C50.7876 61.8223 49.8722 62.0753 49.1515 61.6667C48.4309 61.2581 48.1779 60.3427 48.5865 59.622C48.921 59.0321 49.2604 58.4455 49.6048 57.8621C50.0259 57.1487 50.9456 56.9117 51.659 57.3329ZM248.341 57.3329C249.054 56.9118 249.974 57.1487 250.395 57.8621C250.74 58.4455 251.079 59.0321 251.413 59.622C251.822 60.3427 251.569 61.2581 250.848 61.6667C250.128 62.0753 249.212 61.8223 248.804 61.1017C248.478 60.527 248.147 59.9555 247.812 59.3871C247.391 58.6737 247.628 57.754 248.341 57.3329ZM45.9523 67.9331C46.7059 68.2771 47.038 69.1669 46.694 69.9205C46.4198 70.521 46.1508 71.1244 45.8869 71.7305C45.5561 72.4901 44.6723 72.8377 43.9127 72.507C43.1532 72.1762 42.8056 71.2924 43.1363 70.5329C43.4072 69.9106 43.6834 69.2912 43.9648 68.6747C44.3089 67.9211 45.1987 67.589 45.9523 67.9331ZM254.048 67.9331C254.801 67.5891 255.691 67.9211 256.035 68.6747C256.317 69.2912 256.593 69.9106 256.864 70.5329C257.194 71.2924 256.847 72.1762 256.087 72.507C255.328 72.8377 254.444 72.4901 254.113 71.7305C253.849 71.1244 253.58 70.521 253.306 69.9205C252.962 69.1669 253.294 68.2771 254.048 67.9331ZM258.61 79.074C259.395 78.8112 260.245 79.2351 260.508 80.0207C260.723 80.6639 260.933 81.3095 261.137 81.9576C261.386 82.7478 260.947 83.5901 260.157 83.839C259.367 84.0879 258.525 83.6491 258.276 82.859C258.077 82.2277 257.873 81.5988 257.663 80.9724C257.4 80.1867 257.824 79.3368 258.61 79.074ZM41.3902 79.074C42.1758 79.3368 42.5997 80.1867 42.3369 80.9724C42.1273 81.5988 41.9231 82.2277 41.7243 82.859C41.4754 83.6491 40.633 84.0879 39.8429 83.839C39.0527 83.5901 38.614 82.7478 38.8629 81.9576C39.067 81.3095 39.2767 80.6639 39.4918 80.0208C39.7546 79.2351 40.6045 78.8112 41.3902 79.074ZM38.0266 90.6339C38.8355 90.8125 39.3465 91.613 39.168 92.422C39.0256 93.0671 38.8886 93.7142 38.7573 94.3634C38.5929 95.1754 37.8015 95.7004 36.9895 95.5361C36.1776 95.3717 35.6525 94.5803 35.8169 93.7683C35.9517 93.1019 36.0923 92.4376 36.2385 91.7753C36.4171 90.9664 37.2176 90.4553 38.0266 90.6339ZM261.973 90.6339C262.782 90.4553 263.583 90.9664 263.762 91.7753C263.908 92.4376 264.048 93.1019 264.183 93.7683C264.347 94.5803 263.822 95.3717 263.01 95.536C262.199 95.7004 261.407 95.1754 261.243 94.3634C261.111 93.7142 260.974 93.0671 260.832 92.422C260.653 91.613 261.164 90.8125 261.973 90.6339ZM264.102 102.484C264.926 102.391 265.668 102.983 265.761 103.806C265.837 104.479 265.907 105.154 265.971 105.83C266.05 106.655 265.445 107.387 264.62 107.466C263.795 107.544 263.063 106.939 262.985 106.115C262.922 105.456 262.854 104.798 262.78 104.143C262.687 103.319 263.279 102.577 264.102 102.484ZM35.8976 102.484C36.7208 102.577 37.3129 103.319 37.2201 104.143C37.1462 104.798 37.0778 105.456 37.0151 106.115C36.9367 106.939 36.2045 107.544 35.3798 107.466C34.5551 107.387 33.9502 106.655 34.0286 105.83C34.093 105.154 34.1631 104.479 34.239 103.806C34.3318 102.983 35.0743 102.391 35.8976 102.484ZM264.983 114.492C265.811 114.484 266.488 115.15 266.496 115.979C266.499 116.319 266.5 116.659 266.5 117V118.5H263.991C263.163 118.5 262.491 117.828 262.491 117C262.491 116.322 262.941 115.75 263.558 115.564C263.74 114.948 264.308 114.497 264.983 114.492ZM36.4424 115.564C36.2596 114.948 35.6924 114.497 35.0172 114.492C34.1888 114.484 33.5115 115.15 33.5044 115.979C33.5015 116.319 33.5 116.659 33.5 117V118.5H36.0087C36.8371 118.5 37.5087 117.828 37.5087 117C37.5087 116.322 37.0594 115.75 36.4424 115.564ZM44.5964 117C44.5964 116.172 45.268 115.5 46.0964 115.5H48.114C48.9424 115.5 49.614 116.172 49.614 117C49.614 117.828 48.9424 118.5 48.114 118.5H46.0964C45.268 118.5 44.5964 117.828 44.5964 117ZM56.7017 117C56.7017 116.172 57.3733 115.5 58.2017 115.5H60.2192C61.0477 115.5 61.7192 116.172 61.7192 117C61.7192 117.828 61.0477 118.5 60.2192 118.5H58.2017C57.3733 118.5 56.7017 117.828 56.7017 117ZM68.8069 117C68.8069 116.172 69.4785 115.5 70.3069 115.5H72.3245C73.1529 115.5 73.8245 116.172 73.8245 117C73.8245 117.828 73.1529 118.5 72.3245 118.5H70.3069C69.4785 118.5 68.8069 117.828 68.8069 117ZM80.9122 117C80.9122 116.172 81.5838 115.5 82.4122 115.5H84.4298C85.2582 115.5 85.9298 116.172 85.9298 117C85.9298 117.828 85.2582 118.5 84.4298 118.5H82.4122C81.5838 118.5 80.9122 117.828 80.9122 117ZM93.0175 117C93.0175 116.172 93.6891 115.5 94.5175 115.5H96.535C97.3635 115.5 98.035 116.172 98.035 117C98.035 117.828 97.3635 118.5 96.535 118.5H94.5175C93.6891 118.5 93.0175 117.828 93.0175 117ZM105.123 117C105.123 116.172 105.794 115.5 106.623 115.5H108.64C109.469 115.5 110.14 116.172 110.14 117C110.14 117.828 109.469 118.5 108.64 118.5H106.623C105.794 118.5 105.123 117.828 105.123 117ZM117.228 117C117.228 116.172 117.9 115.5 118.728 115.5H120.746C121.574 115.5 122.246 116.172 122.246 117C122.246 117.828 121.574 118.5 120.746 118.5H118.728C117.9 118.5 117.228 117.828 117.228 117ZM129.333 117C129.333 116.172 130.005 115.5 130.833 115.5H132.851C133.679 115.5 134.351 116.172 134.351 117C134.351 117.828 133.679 118.5 132.851 118.5H130.833C130.005 118.5 129.333 117.828 129.333 117ZM141.439 117C141.439 116.172 142.11 115.5 142.939 115.5H144.956C145.785 115.5 146.456 116.172 146.456 117C146.456 117.828 145.785 118.5 144.956 118.5H142.939C142.11 118.5 141.439 117.828 141.439 117ZM153.544 117C153.544 116.172 154.215 115.5 155.044 115.5H157.061C157.89 115.5 158.561 116.172 158.561 117C158.561 117.828 157.89 118.5 157.061 118.5H155.044C154.215 118.5 153.544 117.828 153.544 117ZM165.649 117C165.649 116.172 166.321 115.5 167.149 115.5H169.167C169.995 115.5 170.667 116.172 170.667 117C170.667 117.828 169.995 118.5 169.167 118.5H167.149C166.321 118.5 165.649 117.828 165.649 117ZM177.754 117C177.754 116.172 178.426 115.5 179.254 115.5H181.272C182.1 115.5 182.772 116.172 182.772 117C182.772 117.828 182.1 118.5 181.272 118.5H179.254C178.426 118.5 177.754 117.828 177.754 117ZM189.86 117C189.86 116.172 190.531 115.5 191.36 115.5H193.377C194.206 115.5 194.877 116.172 194.877 117C194.877 117.828 194.206 118.5 193.377 118.5H191.36C190.531 118.5 189.86 117.828 189.86 117ZM201.965 117C201.965 116.172 202.636 115.5 203.465 115.5H205.482C206.311 115.5 206.982 116.172 206.982 117C206.982 117.828 206.311 118.5 205.482 118.5H203.465C202.636 118.5 201.965 117.828 201.965 117ZM214.07 117C214.07 116.172 214.742 115.5 215.57 115.5H217.588C218.416 115.5 219.088 116.172 219.088 117C219.088 117.828 218.416 118.5 217.588 118.5H215.57C214.742 118.5 214.07 117.828 214.07 117ZM226.175 117C226.175 116.172 226.847 115.5 227.675 115.5H229.693C230.521 115.5 231.193 116.172 231.193 117C231.193 117.828 230.521 118.5 229.693 118.5H227.675C226.847 118.5 226.175 117.828 226.175 117ZM238.281 117C238.281 116.172 238.952 115.5 239.781 115.5H241.798C242.627 115.5 243.298 116.172 243.298 117C243.298 117.828 242.627 118.5 241.798 118.5H239.781C238.952 118.5 238.281 117.828 238.281 117ZM250.386 117C250.386 116.172 251.058 115.5 251.886 115.5H253.904C254.732 115.5 255.404 116.172 255.404 117C255.404 117.828 254.732 118.5 253.904 118.5H251.886C251.058 118.5 250.386 117.828 250.386 117Z" fill="#CACACA"/>
<path fill-rule="evenodd" clip-rule="evenodd" d="M36.1299 115H34V114.877C34.2691 114.635 34.6263 114.488 35.0172 114.492C35.4609 114.495 35.8579 114.691 36.1299 115ZM185 5.8502V8.99864C184.714 8.90607 184.428 8.81462 184.141 8.72426C183.351 8.47536 182.912 7.63304 183.161 6.84289C183.405 6.06685 184.222 5.62975 185 5.8502ZM149.004 3.50427C149.336 3.50143 149.668 3.5 150 3.5C150.332 3.5 150.664 3.50143 150.996 3.50427C151.824 3.51139 152.501 2.84561 152.508 2.01721C152.516 1.18882 151.85 0.5115 151.021 0.504385C150.681 0.501464 150.341 0.5 150 0.5C149.659 0.5 149.319 0.501464 148.979 0.504385C148.15 0.511501 147.484 1.18882 147.492 2.01721C147.499 2.84561 148.176 3.51139 149.004 3.50427ZM161.17 1.02863C160.345 0.950169 159.613 1.55512 159.534 2.37982C159.456 3.20453 160.061 3.93668 160.885 4.01514C161.544 4.07784 162.202 4.14617 162.857 4.22008C163.681 4.31288 164.423 3.72077 164.516 2.89756C164.609 2.07434 164.017 1.33177 163.194 1.23896C162.521 1.1631 161.846 1.09297 161.17 1.02863ZM139.115 4.01515C139.939 3.93669 140.544 3.20453 140.466 2.37982C140.387 1.55512 139.655 0.950171 138.83 1.02863C138.154 1.09298 137.479 1.1631 136.806 1.23896C135.983 1.33177 135.391 2.07435 135.484 2.89756C135.577 3.72077 136.319 4.31288 137.143 4.22008C137.798 4.14617 138.456 4.07784 139.115 4.01515ZM173.232 2.81687C172.42 2.65255 171.628 3.17757 171.464 3.98953C171.3 4.8015 171.825 5.59294 172.637 5.75726C173.286 5.88864 173.933 6.02555 174.578 6.16796C175.387 6.34654 176.188 5.83552 176.366 5.02657C176.545 4.21761 176.034 3.41706 175.225 3.23849C174.562 3.0923 173.898 2.95174 173.232 2.81687ZM127.363 5.75726C128.175 5.59294 128.7 4.8015 128.536 3.98953C128.372 3.17757 127.58 2.65255 126.768 2.81687C126.102 2.95174 125.438 3.0923 124.775 3.23849C123.966 3.41707 123.455 4.21762 123.634 5.02657C123.812 5.83552 124.613 6.34654 125.422 6.16796C126.067 6.02556 126.714 5.88864 127.363 5.75726ZM115.859 8.72427C116.649 8.47536 117.088 7.63304 116.839 6.84289C116.59 6.05274 115.748 5.61397 114.958 5.86288C114.31 6.06703 113.664 6.27669 113.021 6.49181C112.235 6.7546 111.811 7.60452 112.074 8.39016C112.337 9.17581 113.187 9.59967 113.972 9.33688C114.599 9.12734 115.228 8.92312 115.859 8.72427ZM104.731 12.8869C105.49 12.5561 105.838 11.6723 105.507 10.9127C105.176 10.1532 104.292 9.80556 103.533 10.1363C102.911 10.4072 102.291 10.6834 101.675 10.9648C100.921 11.3088 100.589 12.1987 100.933 12.9523C101.277 13.7059 102.167 14.038 102.921 13.694C103.521 13.4198 104.124 13.1508 104.731 12.8869ZM94.1017 18.1962C94.8223 17.7876 95.0753 16.8722 94.6667 16.1515C94.2581 15.4309 93.3427 15.1779 92.622 15.5865C92.0321 15.921 91.4455 16.2604 90.8621 16.6048C90.1487 17.0259 89.9118 17.9456 90.3329 18.659C90.754 19.3724 91.6737 19.6094 92.3871 19.1882C92.9555 18.8527 93.527 18.522 94.1017 18.1962ZM84.0869 24.5893C84.7609 24.1076 84.9169 23.1708 84.4352 22.4968C83.9536 21.8227 83.0167 21.6668 82.3427 22.1484C81.7912 22.5424 81.2434 22.9412 80.6991 23.3445C80.0336 23.8378 79.8939 24.7772 80.3872 25.4428C80.8805 26.1084 81.8199 26.248 82.4855 25.7547C83.0157 25.3617 83.5496 24.9732 84.0869 24.5893ZM74.7926 31.9918C75.4129 31.4426 75.4705 30.4946 74.9213 29.8744C74.3722 29.2541 73.4242 29.1965 72.8039 29.7456C72.2965 30.1949 71.7929 30.6486 71.2934 31.1065C70.6828 31.6664 70.6416 32.6152 71.2015 33.2259C71.7613 33.8365 72.7102 33.8777 73.3208 33.3178C73.8075 32.8716 74.2981 32.4296 74.7926 31.9918ZM66.3178 40.3208C66.8777 39.7102 66.8365 38.7613 66.2259 38.2015C65.6152 37.6416 64.6664 37.6828 64.1065 38.2934C63.6486 38.7929 63.1949 39.2965 62.7456 39.8039C62.1965 40.4242 62.2541 41.3722 62.8744 41.9213C63.4946 42.4705 64.4426 42.4129 64.9918 41.7926C65.4296 41.2981 65.8716 40.8075 66.3178 40.3208ZM58.7547 49.4855C59.248 48.8199 59.1084 47.8805 58.4428 47.3872C57.7772 46.8939 56.8378 47.0336 56.3445 47.6991C55.9412 48.2434 55.5424 48.7912 55.1484 49.3427C54.6668 50.0167 54.8227 50.9536 55.4968 51.4352C56.1708 51.9169 57.1076 51.7609 57.5893 51.0869C57.9732 50.5496 58.3617 50.0157 58.7547 49.4855ZM52.1882 59.3871C52.6094 58.6737 52.3724 57.754 51.659 57.3329C50.9456 56.9117 50.0259 57.1487 49.6048 57.8621C49.2604 58.4455 48.921 59.0321 48.5865 59.622C48.1779 60.3427 48.4309 61.2581 49.1515 61.6667C49.8722 62.0753 50.7876 61.8223 51.1962 61.1017C51.522 60.527 51.8527 59.9555 52.1882 59.3871ZM46.694 69.9205C47.038 69.1669 46.7059 68.2771 45.9523 67.9331C45.1987 67.589 44.3089 67.9211 43.9648 68.6747C43.6834 69.2912 43.4072 69.9106 43.1363 70.5329C42.8056 71.2924 43.1532 72.1762 43.9127 72.507C44.6723 72.8377 45.5561 72.4901 45.8869 71.7305C46.1508 71.1244 46.4198 70.521 46.694 69.9205ZM42.3369 80.9724C42.5997 80.1867 42.1758 79.3368 41.3902 79.074C40.6045 78.8112 39.7546 79.2351 39.4918 80.0208C39.2767 80.6639 39.067 81.3095 38.8629 81.9576C38.614 82.7478 39.0527 83.5901 39.8429 83.839C40.633 84.0879 41.4754 83.6491 41.7243 82.859C41.9231 82.2277 42.1273 81.5988 42.3369 80.9724ZM39.168 92.422C39.3465 91.613 38.8355 90.8125 38.0266 90.6339C37.2176 90.4553 36.4171 90.9664 36.2385 91.7753C36.0923 92.4376 35.9517 93.1019 35.8169 93.7683C35.6525 94.5803 36.1776 95.3717 36.9895 95.5361C37.8015 95.7004 38.5929 95.1754 38.7573 94.3634C38.8886 93.7142 39.0256 93.0671 39.168 92.422ZM37.2201 104.143C37.3129 103.319 36.7208 102.577 35.8976 102.484C35.0743 102.391 34.3318 102.983 34.239 103.806C34.1631 104.479 34.093 105.154 34.0286 105.83C33.9502 106.655 34.5551 107.387 35.3798 107.466C36.2045 107.544 36.9367 106.939 37.0151 106.115C37.0778 105.456 37.1462 104.798 37.2201 104.143Z" fill="#FBAE17"/>
<circle cx="185" cy="117" r="5" fill="#FBAE17"/>
<path fill-rule="evenodd" clip-rule="evenodd" d="M300 119H0V115H300V119Z" fill="#FBAE17"/>
<path d="M40 117C40 119.761 37.7614 122 35 122C32.2386 122 30 119.761 30 117C30 114.239 32.2386 112 35 112C37.7614 112 40 114.239 40 117Z" fill="#FBAE17"/>
<path d="M270 117C270 119.761 267.761 122 265 122C262.239 122 260 119.761 260 117C260 114.239 262.239 112 265 112C267.761 112 270 114.239 270 117Z" fill="#333333"/>
<path d="M29 115H42V119H29V115Z" fill="#FBAE17"/>
<defs>
<linearGradient id="paint0_linear_8_143" x1="109.5" y1="0" x2="109.5" y2="115" gradientUnits="userSpaceOnUse">
<stop stop-color="#FBAE17" stop-opacity="0.25"/>
<stop offset="1" stop-color="#FBAE17" stop-opacity="0"/>
</linearGradient>
</defs>
</svg>
